<svg id="visual" viewBox="0 0 380 200" width="460" height="290" xmlns="http://www.w3.org/2000/svg" xmlns:xlink="http://www.w3.org/1999/xlink" version="1.1"><path d="M0 31L5.5 34C11 37 22 43 32.8 46C43.7 49 54.3 49 65.2 49.8C76 50.7 87 52.3 98 51.8C109 51.3 120 48.7 131 47.3C142 46 153 46 163.8 46.8C174.7 47.7 185.3 49.3 196.2 46.8C207 44.3 218 37.7 229 35.2C240 32.7 251 34.3 262 38.2C273 42 284 48 294.8 48C305.7 48 316.3 42 327.2 43.2C338 44.3 349 52.7 354.5 56.8L360 61L360 0L354.5 0C349 0 338 0 327.2 0C316.3 0 305.7 0 294.8 0C284 0 273 0 262 0C251 0 240 0 229 0C218 0 207 0 196.2 0C185.3 0 174.7 0 163.8 0C153 0 142 0 131 0C120 0 109 0 98 0C87 0 76 0 65.2 0C54.3 0 43.7 0 32.8 0C22 0 11 0 5.5 0L0 0Z" fill="#ffffff"></path><path d="M0 109L5.5 108.5C11 108 22 107 32.8 110.3C43.7 113.7 54.3 121.3 65.2 127.7C76 134 87 139 98 140.2C109 141.3 120 138.7 131 131.2C142 123.7 153 111.3 163.8 105.2C174.7 99 185.3 99 196.2 99.3C207 99.7 218 100.3 229 104.5C240 108.7 251 116.3 262 118.5C273 120.7 284 117.3 294.8 115.7C305.7 114 316.3 114 327.2 114.8C338 115.7 349 117.3 354.5 118.2L360 119L360 59L354.5 54.8C349 50.7 338 42.3 327.2 41.2C316.3 40 305.7 46 294.8 46C284 46 273 40 262 36.2C251 32.3 240 30.7 229 33.2C218 35.7 207 42.3 196.2 44.8C185.3 47.3 174.7 45.7 163.8 44.8C153 44 142 44 131 45.3C120 46.7 109 49.3 98 49.8C87 50.3 76 48.7 65.2 47.8C54.3 47 43.7 47 32.8 44C22 41 11 35 5.5 32L0 29Z" fill="#cbe5da"></path><path d="M0 136L5.5 137.7C11 139.3 22 142.7 32.8 147.7C43.7 152.7 54.3 159.3 65.2 164.8C76 170.3 87 174.7 98 173.8C109 173 120 167 131 159C142 151 153 141 163.8 137.7C174.7 134.3 185.3 137.7 196.2 139C207 140.3 218 139.7 229 141.8C240 144 251 149 262 150.2C273 151.3 284 148.7 294.8 148.2C305.7 147.7 316.3 149.3 327.2 150.2C338 151 349 151 354.5 151L360 151L360 117L354.5 116.2C349 115.3 338 113.7 327.2 112.8C316.3 112 305.7 112 294.8 113.7C284 115.3 273 118.7 262 116.5C251 114.3 240 106.7 229 102.5C218 98.3 207 97.7 196.2 97.3C185.3 97 174.7 97 163.8 103.2C153 109.3 142 121.7 131 129.2C120 136.7 109 139.3 98 138.2C87 137 76 132 65.2 125.7C54.3 119.3 43.7 111.7 32.8 108.3C22 105 11 106 5.5 106.5L0 107Z" fill="#96cab7"></path><path d="M0 174L5.5 175.7C11 177.3 22 180.7 32.8 183.5C43.7 186.3 54.3 188.7 65.2 191.5C76 194.3 87 197.7 98 197.3C109 197 120 193 131 187.7C142 182.3 153 175.7 163.8 173.5C174.7 171.3 185.3 173.7 196.2 174.8C207 176 218 176 229 176.8C240 177.7 251 179.3 262 179C273 178.7 284 176.3 294.8 175.2C305.7 174 316.3 174 327.2 173.5C338 173 349 172 354.5 171.5L360 171L360 149L354.5 149C349 149 338 149 327.2 148.2C316.3 147.3 305.7 145.7 294.8 146.2C284 146.7 273 149.3 262 148.2C251 147 240 142 229 139.8C218 137.7 207 138.3 196.2 137C185.3 135.7 174.7 132.3 163.8 135.7C153 139 142 149 131 157C120 165 109 171 98 171.8C87 172.7 76 168.3 65.2 162.8C54.3 157.3 43.7 150.7 32.8 145.7C22 140.7 11 137.3 5.5 135.7L0 134Z" fill="#5eaf94"></path><path d="M0 251L5.5 251C11 251 22 251 32.8 251C43.7 251 54.3 251 65.2 251C76 251 87 251 98 251C109 251 120 251 131 251C142 251 153 251 163.8 251C174.7 251 185.3 251 196.2 251C207 251 218 251 229 251C240 251 251 251 262 251C273 251 284 251 294.8 251C305.7 251 316.3 251 327.2 251C338 251 349 251 354.5 251L360 251L360 169L354.5 169.5C349 170 338 171 327.2 171.5C316.3 172 305.7 172 294.8 173.2C284 174.3 273 176.7 262 177C251 177.3 240 175.7 229 174.8C218 174 207 174 196.2 172.8C185.3 171.7 174.7 169.3 163.8 171.5C153 173.7 142 180.3 131 185.7C120 191 109 195 98 195.3C87 195.7 76 192.3 65.2 189.5C54.3 186.7 43.7 184.3 32.8 181.5C22 178.7 11 175.3 5.5 173.7L0 172Z" fill="#009473"></path></svg>