<svg id="visual" viewBox="0 0 900 600" width="900" height="600" xmlns="http://www.w3.org/2000/svg" xmlns:xlink="http://www.w3.org/1999/xlink" version="1.1"><path d="M0 73L13.7 80C27.3 87 54.7 101 82 108C109.3 115 136.7 115 163.8 117C191 119 218 123 245.2 122C272.3 121 299.7 115 327 112C354.3 109 381.7 109 409 111C436.3 113 463.7 117 491 111C518.3 105 545.7 89 573 83C600.3 77 627.7 81 654.8 90C682 99 709 113 736.2 113C763.3 113 790.7 99 818 102C845.3 105 872.7 125 886.3 135L900 145L900 0L886.3 0C872.7 0 845.3 0 818 0C790.7 0 763.3 0 736.2 0C709 0 682 0 654.8 0C627.7 0 600.3 0 573 0C545.7 0 518.3 0 491 0C463.7 0 436.3 0 409 0C381.7 0 354.3 0 327 0C299.7 0 272.3 0 245.2 0C218 0 191 0 163.8 0C136.7 0 109.3 0 82 0C54.7 0 27.3 0 13.7 0L0 0Z" fill="#ffffff"></path><path d="M0 259L13.7 258C27.3 257 54.7 255 82 263C109.3 271 136.7 289 163.8 304C191 319 218 331 245.2 334C272.3 337 299.7 331 327 313C354.3 295 381.7 265 409 250C436.3 235 463.7 235 491 236C518.3 237 545.7 239 573 249C600.3 259 627.7 277 654.8 282C682 287 709 279 736.2 275C763.3 271 790.7 271 818 273C845.3 275 872.7 279 886.3 281L900 283L900 143L886.3 133C872.7 123 845.3 103 818 100C790.7 97 763.3 111 736.2 111C709 111 682 97 654.8 88C627.7 79 600.3 75 573 81C545.7 87 518.3 103 491 109C463.7 115 436.3 111 409 109C381.7 107 354.3 107 327 110C299.7 113 272.3 119 245.2 120C218 121 191 117 163.8 115C136.7 113 109.3 113 82 106C54.7 99 27.3 85 13.7 78L0 71Z" fill="#cbe5da"></path><path d="M0 325L13.7 329C27.3 333 54.7 341 82 353C109.3 365 136.7 381 163.8 394C191 407 218 417 245.2 415C272.3 413 299.7 399 327 380C354.3 361 381.7 337 409 329C436.3 321 463.7 329 491 332C518.3 335 545.7 333 573 338C600.3 343 627.7 355 654.8 358C682 361 709 355 736.2 354C763.3 353 790.7 357 818 359C845.3 361 872.7 361 886.3 361L900 361L900 281L886.3 279C872.7 277 845.3 273 818 271C790.7 269 763.3 269 736.2 273C709 277 682 285 654.8 280C627.7 275 600.3 257 573 247C545.7 237 518.3 235 491 234C463.7 233 436.3 233 409 248C381.7 263 354.3 293 327 311C299.7 329 272.3 335 245.2 332C218 329 191 317 163.8 302C136.7 287 109.3 269 82 261C54.7 253 27.3 255 13.7 256L0 257Z" fill="#96cab7"></path><path d="M0 415L13.7 419C27.3 423 54.7 431 82 438C109.3 445 136.7 451 163.8 458C191 465 218 473 245.2 472C272.3 471 299.7 461 327 448C354.3 435 381.7 419 409 414C436.3 409 463.7 415 491 418C518.3 421 545.7 421 573 423C600.3 425 627.7 429 654.8 428C682 427 709 421 736.2 418C763.3 415 790.7 415 818 414C845.3 413 872.7 411 886.3 410L900 409L900 359L886.3 359C872.7 359 845.3 359 818 357C790.7 355 763.3 351 736.2 352C709 353 682 359 654.8 356C627.7 353 600.3 341 573 336C545.7 331 518.3 333 491 330C463.7 327 436.3 319 409 327C381.7 335 354.3 359 327 378C299.7 397 272.3 411 245.2 413C218 415 191 405 163.8 392C136.7 379 109.3 363 82 351C54.7 339 27.3 331 13.7 327L0 323Z" fill="#5eaf94"></path><path d="M0 601L13.7 601C27.3 601 54.7 601 82 601C109.3 601 136.7 601 163.8 601C191 601 218 601 245.2 601C272.3 601 299.7 601 327 601C354.3 601 381.7 601 409 601C436.3 601 463.7 601 491 601C518.3 601 545.7 601 573 601C600.3 601 627.7 601 654.8 601C682 601 709 601 736.2 601C763.3 601 790.7 601 818 601C845.3 601 872.7 601 886.3 601L900 601L900 407L886.3 408C872.7 409 845.3 411 818 412C790.7 413 763.3 413 736.2 416C709 419 682 425 654.8 426C627.7 427 600.3 423 573 421C545.7 419 518.3 419 491 416C463.7 413 436.3 407 409 412C381.7 417 354.3 433 327 446C299.7 459 272.3 469 245.2 470C218 471 191 463 163.8 456C136.7 449 109.3 443 82 436C54.7 429 27.3 421 13.7 417L0 413Z" fill="#009473"></path></svg>