<svg width="12" height="12" viewBox="0 0 12 12" fill="none" xmlns="http://www.w3.org/2000/svg">
<path d="M11.59 9.59288L9.56288 7.56578L8.00368 6.92161C8.52284 6.18332 8.80098 5.30254 8.79998 4.39999C8.79998 1.97382 6.82616 0 4.39999 0C1.97382 0 0 1.97382 0 4.39999C0 6.82616 1.97382 8.79998 4.39999 8.79998C5.3104 8.80102 6.19846 8.51807 6.94046 7.99056L7.58296 9.54555L9.60998 11.5727C9.73998 11.7028 9.89431 11.8059 10.0642 11.8763C10.234 11.9466 10.4161 11.9828 10.5999 11.9828C10.7838 11.9828 10.9658 11.9466 11.1357 11.8763C11.3056 11.8059 11.4599 11.7028 11.5899 11.5728C11.7199 11.4428 11.823 11.2885 11.8934 11.1186C11.9638 10.9488 12 10.7667 12 10.5829C12 10.399 11.9638 10.2169 11.8934 10.0471C11.8231 9.87723 11.72 9.72289 11.59 9.59288ZM0.799998 4.39999C0.799998 2.41499 2.41499 0.799998 4.39999 0.799998C6.38499 0.799998 7.99998 2.41499 7.99998 4.39999C7.99998 6.38499 6.38499 7.99998 4.39999 7.99998C2.41499 7.99998 0.799998 6.38499 0.799998 4.39999ZM11.0243 11.0071C10.9116 11.1194 10.7591 11.1825 10.6 11.1825C10.4409 11.1825 10.2883 11.1194 10.1757 11.0071L8.26141 9.09278L7.66406 7.64691L9.10998 8.24426L11.0243 10.1586C11.1366 10.2712 11.1997 10.4238 11.1997 10.5828C11.1997 10.7419 11.1366 10.8945 11.0243 11.0071Z" fill="black"/>
</svg>
